<?xml version="1.0" encoding="UTF-8"?>
<svg id="Layer_2" data-name="Layer 2" xmlns="http://www.w3.org/2000/svg" viewBox="0 0 1304.5 737.04">
  <defs>
    <style>
      .cls-1 {
        fill: #fff;
      }

      .cls-2 {
        fill: #114286;
      }

      .cls-3 {
        fill: #a4b7d1;
      }

      .cls-4 {
        fill: #626262;
      }

      .cls-5 {
        fill: #616161;
      }
    </style>
  </defs>
  <g id="Layer_1-2" data-name="Layer 1">
    <g>
      <path class="cls-1" d="m0,92.54V0h1304.5v437.28c-.2.03-.4.02-.59-.03-.24-7.34-.55-14.67-.68-22.01-.1-5.43.08-10.86.08-16.29,0-61.04-.02-122.08.02-183.12,0-15.23-.66-30.39-2.65-45.53-1.63-12.38-4.12-24.52-7.93-36.4-6.3-19.61-15.88-37.37-29.89-52.6-17.81-19.37-39.92-32.01-64.66-40.1-11.58-3.78-23.52-6.57-35.43-9.18-8.59-1.88-17.4-2.84-26.14-3.98-9.47-1.23-18.95-2.36-28.46-3.19-8.14-.71-16.33-1.02-24.5-1.38-7.34-.32-14.69-.59-22.04-.65-17.27-.12-34.55-.08-51.83-.14-37.71-.13-75.42-.28-113.12-.44-30.32-.13-60.64-.36-90.96-.39-33.8-.03-67.61-.06-101.41.23-25.39.22-50.77.9-76.16,1.5-5.27.12-10.58.45-15.75,1.39-3.07.56-6.34,1.94-8.76,3.89-8.03,6.45-10.95,15.65-11.28,25.43-.41,12.24.16,24.51.16,36.76,0,19.76-.11,39.53-.18,59.29-.15,42.13-.3,84.27-.45,126.4-.06,16.94-.21,33.88-.18,50.81.11,73.96.22,147.91.44,221.87.08,27,.45,53.99.76,80.98.12,10.38.41,20.76.64,31.14.21,9.94.33,19.89.69,29.82.21,5.56.61,11.13,1.35,16.64.5,3.7,2.63,6.85,5.49,9.26,6.56,5.54,14.78,6.89,22.81,7.87,6.86.84,13.92.27,20.88.15,8.97-.15,17.94-.72,26.91-.7,100.07.2,200.14.47,300.21.71,4.34.01,8.67-.31,13.01-.27,14.99.16,29.98.62,44.97.57,16.49-.05,32.98-.44,49.46-.88,8.18-.22,16.35-.76,24.51-1.4,8.88-.69,17.76-1.53,26.62-2.52,17.7-1.98,35.09-5.44,52.22-10.38,26.88-7.74,51.12-20.21,71.56-39.43,6.08-5.71,11.72-12.04,16.71-18.72,9.22-12.34,16.65-25.83,21.33-40.54,2.97-9.33,5.16-18.97,6.93-28.61,1.64-8.95,2.33-18.09,3.3-27.16.41-3.84.38-7.73.73-11.58.28-3.14.83-6.25,1.26-9.38v202.01H0C0,531.34,0,325.63,0,119.91c.25.76.61,1.5.73,2.28.73,5.03,1,10.16,2.17,15.08,4.12,17.24,9.46,34.07,17.13,50.13,4.27,8.94,7.72,18.26,12.06,27.16,4.66,9.55,9.96,18.78,14.91,28.19,2.46,4.67,4.73,9.43,7.16,14.12,5.2,10.04,10.54,20.01,15.64,30.1,2.99,5.92,5.07,12.18,6.88,18.59,3.68,13.01,5,26.34,6.07,39.7.63,7.85.63,15.76.68,23.65.03,4.52-.41,9.03-.6,13.55-.24,5.6-.4,11.21-.68,16.81-.16,3.21-.47,6.42-.78,9.62-.54,5.62-1.14,11.24-1.72,16.86-.49,4.78-.92,9.56-1.49,14.33-.76,6.31-1.64,12.6-2.44,18.9-.5,3.9-.9,7.81-1.44,11.7-.8,5.78-1.75,11.55-2.53,17.33-.74,5.48-1.29,10.99-2.02,16.47-.99,7.35-2.19,14.66-3.08,22.02-.85,7.09-1.47,14.22-2.1,21.34-.91,10.13-2.3,20.27-2.47,30.42-.26,16.56.02,33.14.65,49.68.28,7.4,1.81,14.78,3.04,22.12,1.45,8.7,4.37,16.95,7.84,25.07,5.2,12.16,12.03,23.26,21.02,32.92,8.12,8.72,17.07,16.32,28.14,21.45,6.07,2.82,12.15,5.03,19.68,6.97-2.89-5.81-5.27-10.84-7.87-15.76-6.7-12.68-14.05-25.04-20.14-38-10.29-21.89-14.73-45.37-16.5-69.33-.66-8.88-.08-17.84-.11-26.77-.05-12.59,1.02-25.08,3.25-37.46,2.08-11.58,3.97-23.19,6.4-34.7,4.17-19.75,10.75-38.81,17.4-57.83,10.35-29.6,22.35-58.72,27.99-89.76,2.03-11.21,3.55-22.59,4.11-33.95.42-8.39-.86-16.9-1.8-25.31-1.32-11.9-5.18-23.12-10.13-33.96-8.69-19.02-20.32-36.33-31.75-53.73-11.47-17.45-23.25-34.69-31.58-53.95-7.55-17.46-12.31-35.35-8.76-54.67,2.47-13.47,7.97-25.32,17.53-35.08,8.41-8.59,18.72-14.24,30.01-18.27,16.55-5.91,33.82-7.7,51.16-8.22,12.39-.37,24.82.64,37.23,1.18,5.35.23,10.71.7,16.03,1.33,7.83.93,15.63,2.08,23.44,3.2,6.64.96,13.25,2.03,19.89,3,4.34.63,8.69,1.17,13.04,1.75.18-.36.36-.72.54-1.08-1.32-1.11-2.53-2.37-3.97-3.29-8.95-5.75-17.63-12.04-27-17.02-22.45-11.92-45.37-22.87-70.05-29.62-18.09-4.95-36.5-7.86-55.22-8.43-12.47-.38-24.86.76-37.17,3.08-11,2.07-21.69,5.03-31.8,9.76-13.21,6.18-24.88,14.42-34.36,25.78-10.35,12.4-16.93,26.41-20.13,42.12C1.37,85.15.7,88.85,0,92.54Zm463.99,187.32c1.96-2.76,3.97-5,5.32-7.58,5.64-10.72,11.46-21.37,16.48-32.38,5.27-11.56,9.89-23.42,14.4-35.31,2.29-6.03,3.88-12.35,5.44-18.63,2.5-10.06,4.98-20.15,6.95-30.32,1.71-8.82,2.6-17.79,4.07-26.67,2.22-13.48,3.07-26.93,1.34-40.58-1.61-12.71-5.75-24.38-12.62-35.1-7.16-11.17-16.59-19.77-29.06-24.77-7.47-3-15.23-4.01-23.26-4.6-8.7-.64-17.05.45-25.47,1.98-10.34,1.89-20.45,4.49-30.18,8.55-12.03,5.02-24.31,9.47-36.11,14.96-12.41,5.76-24.43,12.36-36.52,18.78-12.07,6.41-23.88,13.34-36.06,19.54-14.27,7.26-28.3,15.16-44.13,18.87-11.63,2.73-23.17,5.38-35.32,4.31-7.83-.69-15.22-2.81-22.66-4.96-4.85-1.4-9.72-2.71-15.21-4.24,3.79,8.86,9.68,14.89,16.4,20.08,4.28,3.3,8.75,6.39,14.06,8.12,4.64,1.52,8.92,4.25,13.6,5.55,8.87,2.47,17.95,2.4,27.14,1.54,9.4-.88,18.4-3.23,27.32-5.99,23.66-7.33,45.7-18.65,68.43-28.27,15.9-6.73,31.81-13.49,48.72-17.24,8.5-1.88,17.2-3.13,25.87-3.87,5.05-.43,10.28.45,15.35,1.2,9.5,1.41,17.98,5.28,25.26,11.6,7.25,6.29,12.47,13.94,15.93,22.92,3.32,8.63,5.12,17.52,5.36,26.69.26,9.89.06,19.77-1.84,29.55-1.33,6.87-2.19,13.84-3.82,20.63-1.39,5.8-3.62,11.41-5.39,17.12-.62,2.01-.96,4.1-1.48,6.14-.35,1.42-1.12,2.82-1.11,4.22.07,5.53.41,11.05.58,16.58.25,8.32.41,16.64.68,24.96.15,4.85.41,9.69.67,14.53.03.55.43,1.08.86,2.1Zm-109.61,224.28c1.02-1.26,2.27-2.23,2.78-3.51,3.25-8.14,5.07-16.64,5.44-25.37.56-13.19-.47-26.25-3.86-39.07-7.05-26.67-19.22-50.32-40.28-68.82-10.27-9.02-21.63-15.56-35.46-17.54-11.65-1.67-22.35.6-32.17,6.7-10.73,6.67-18.68,16.18-25.57,26.62-10.53,15.95-19.52,32.75-26.89,50.36-7.31,17.44-14.5,34.95-21.11,52.66-4.73,12.69-8.49,25.74-12.51,38.68-5.03,16.21-9.38,32.57-11.45,49.48-1.35,11.06-3.24,22.05-4.53,33.12-1.33,11.35-2.34,22.74-3.28,34.12-.81,9.84-1.43,19.7-1.96,29.56-.38,7-.83,14.03-.6,21.03.36,10.94.97,21.88,2.08,32.77.4,3.97,1.27,8.28,4.59,11.81.64-1.74,1.3-3.08,1.64-4.5,4.84-20.18,9.7-40.36,14.41-60.57,3.66-15.72,6.91-31.55,10.71-47.24,7.35-30.4,16.16-60.38,26.45-89.92,9.41-27.01,19.91-53.54,34.02-78.49,7.82-13.83,16.49-27.15,29.19-37.17,7.09-5.59,14.79-9.46,24.43-8.43,5.28.57,9.88,2.42,13.88,5.4,6.81,5.07,12.58,11.33,16.83,18.72,4.76,8.29,9.42,16.67,13.51,25.3,4.09,8.61,7.4,17.59,11.08,26.39,2.46,5.9,3.39,12.51,8.64,17.9Z"/>
      <path class="cls-2" d="m1304.5,535.03c-.43,3.12-.98,6.24-1.26,9.38-.35,3.85-.31,7.74-.73,11.58-.97,9.07-1.66,18.2-3.3,27.16-1.77,9.64-3.97,19.28-6.93,28.61-4.68,14.71-12.11,28.2-21.33,40.54-4.99,6.68-10.63,13.01-16.71,18.72-20.44,19.22-44.68,31.68-71.56,39.43-17.14,4.94-34.53,8.4-52.22,10.38-8.86.99-17.73,1.83-26.62,2.52-8.16.63-16.33,1.18-24.51,1.4-16.48.44-32.97.83-49.46.88-14.99.05-29.98-.41-44.97-.57-4.33-.05-8.67.28-13.01.27-100.07-.23-200.14-.51-300.21-.71-8.97-.02-17.94.54-26.91.7-6.97.12-14.02.69-20.88-.15-8.03-.98-16.25-2.33-22.81-7.87-2.86-2.42-4.99-5.56-5.49-9.26-.75-5.51-1.15-11.08-1.35-16.64-.37-9.94-.48-19.88-.69-29.82-.22-10.38-.52-20.76-.64-31.14-.31-26.99-.68-53.99-.76-80.98-.22-73.96-.33-147.91-.44-221.87-.03-16.94.12-33.88.18-50.81.15-42.13.3-84.27.45-126.4.07-19.76.18-39.53.18-59.29,0-12.26-.58-24.52-.16-36.76.33-9.78,3.25-18.97,11.28-25.43,2.42-1.95,5.68-3.33,8.76-3.89,5.17-.94,10.49-1.26,15.75-1.39,25.38-.6,50.77-1.28,76.16-1.5,33.8-.29,67.6-.27,101.41-.23,30.32.03,60.64.26,90.96.39,37.71.16,75.42.3,113.12.44,17.28.06,34.55.02,51.83.14,7.35.05,14.7.33,22.04.65,8.17.35,16.35.66,24.5,1.38,9.51.83,18.99,1.96,28.46,3.19,8.74,1.13,17.55,2.1,26.14,3.98,11.92,2.61,23.86,5.4,35.43,9.18,24.74,8.08,46.85,20.73,64.66,40.1,14.01,15.23,23.59,32.99,29.89,52.6,3.81,11.87,6.3,24.01,7.93,36.4,1.99,15.13,2.66,30.29,2.65,45.53-.04,61.04-.01,122.08-.02,183.12,0,5.43-.17,10.86-.08,16.29.13,7.34.45,14.68.68,22.01,0,3.79-.07,7.58.03,11.36.08,3.18.37,6.35.57,9.53,0,25.63,0,51.27,0,76.9Zm-622.39,106.08c9.75.5,19.1,1.38,28.45,1.38,31.15-.02,62.3-.32,93.45-.59,15.06-.13,30.12-.62,45.18-.6,35.75.06,71.5.47,107.26.47,45.59-.01,91.19,1.12,136.76-1.19,7.91-.4,15.88-.77,23.67-2.04,12.7-2.08,25.26-4.76,37.38-9.49,16.01-6.24,30.35-14.61,41.48-27.98,9.52-11.44,15.6-24.42,17.34-39.16,1.18-10,1.5-20.11,2.03-30.18.37-7,.52-14.01.67-21.03.23-10.39.42-20.79.54-31.18.1-8.58.15-17.16.11-25.74-.15-31.6-.35-63.19-.54-94.79-.14-23.45-.38-46.9-.42-70.35-.03-15.91-.13-31.83.41-47.73.55-16.41.61-32.74-1.3-49.09-1.13-9.7-3-19.08-6.51-28.23-4.99-13-12.71-23.74-23.95-32.1-11.21-8.34-23.73-13.74-37.07-17.33-14.07-3.79-28.53-5.37-43-6.62-8.05-.7-16.17-.82-24.26-.93-16.41-.22-32.82-.34-49.22-.36-41.41-.05-82.82-.05-124.24,0-31.08.04-62.17.2-93.25.29-26.74.08-53.47.16-80.21.24-15.98.04-31.95.07-47.93.11-.95,0-1.9.08-2.85.13v534.1Z"/>
      <path class="cls-5" d="m0,92.54c.7-3.69,1.37-7.39,2.12-11.07,3.19-15.71,9.77-29.72,20.13-42.12,9.49-11.36,21.15-19.59,34.36-25.78,10.11-4.73,20.8-7.69,31.8-9.76,12.31-2.32,24.7-3.46,37.17-3.08,18.72.57,37.13,3.48,55.22,8.43,24.68,6.75,47.6,17.7,70.05,29.62,9.37,4.98,18.05,11.26,27,17.02,1.44.92,2.65,2.18,3.97,3.29-.18.36-.36.72-.54,1.08-4.35-.58-8.7-1.11-13.04-1.75-6.63-.97-13.25-2.05-19.89-3-7.81-1.12-15.61-2.27-23.44-3.2-5.32-.64-10.68-1.1-16.03-1.33-12.41-.54-24.84-1.55-37.23-1.18-17.34.52-34.61,2.32-51.16,8.22-11.29,4.03-21.6,9.68-30.01,18.27-9.56,9.77-15.06,21.62-17.53,35.08-3.55,19.33,1.21,37.22,8.76,54.67,8.33,19.26,20.11,36.5,31.58,53.95,11.43,17.39,23.07,34.7,31.75,53.73,4.95,10.85,8.81,22.06,10.13,33.96.93,8.41,2.21,16.92,1.8,25.31-.56,11.36-2.08,22.75-4.11,33.95-5.64,31.04-17.64,60.16-27.99,89.76-6.65,19.03-13.24,38.08-17.4,57.83-2.43,11.5-4.31,23.12-6.4,34.7-2.23,12.39-3.3,24.87-3.25,37.46.04,8.93-.54,17.89.11,26.77,1.77,23.96,6.21,47.45,16.5,69.33,6.09,12.96,13.44,25.33,20.14,38,2.6,4.92,4.98,9.95,7.87,15.76-7.53-1.94-13.61-4.16-19.68-6.97-11.06-5.13-20.01-12.74-28.14-21.45-9-9.65-15.82-20.76-21.02-32.92-3.47-8.11-6.39-16.37-7.84-25.07-1.23-7.34-2.75-14.72-3.04-22.12-.63-16.55-.91-33.13-.65-49.68.16-10.15,1.56-20.28,2.47-30.42.64-7.12,1.25-14.24,2.1-21.34.89-7.36,2.09-14.67,3.08-22.02.74-5.48,1.28-10.99,2.02-16.47.78-5.79,1.72-11.55,2.53-17.33.54-3.89.94-7.8,1.44-11.7.81-6.3,1.69-12.59,2.44-18.9.57-4.77,1-9.55,1.49-14.33.58-5.62,1.17-11.23,1.72-16.86.31-3.2.62-6.41.78-9.62.28-5.6.44-11.21.68-16.81.19-4.52.63-9.04.6-13.55-.06-7.89-.05-15.8-.68-23.65-1.07-13.36-2.39-26.69-6.07-39.7-1.82-6.41-3.9-12.67-6.88-18.59-5.1-10.09-10.44-20.06-15.64-30.1-2.43-4.69-4.7-9.45-7.16-14.12-4.95-9.41-10.25-18.64-14.91-28.19-4.34-8.9-7.8-18.22-12.06-27.16-7.67-16.06-13.01-32.89-17.13-50.13-1.18-4.92-1.44-10.05-2.17-15.08C.61,121.41.25,120.67,0,119.91c0-9.12,0-18.25,0-27.37Z"/>
      <path class="cls-3" d="m1304.5,458.14c-.2-3.18-.48-6.35-.57-9.53-.1-3.78-.03-7.57-.03-11.36.2.05.39.07.59.03v20.85Z"/>
      <path class="cls-5" d="m463.99,279.86c-.43-1.02-.83-1.55-.86-2.1-.27-4.84-.52-9.68-.67-14.53-.26-8.32-.42-16.64-.68-24.96-.17-5.53-.51-11.05-.58-16.58-.02-1.4.75-2.8,1.11-4.22.51-2.04.85-4.14,1.48-6.14,1.77-5.72,4-11.32,5.39-17.12,1.63-6.79,2.49-13.76,3.82-20.63,1.9-9.78,2.1-19.66,1.84-29.55-.24-9.17-2.04-18.07-5.36-26.69-3.46-8.98-8.68-16.64-15.93-22.92-7.28-6.32-15.76-10.18-25.26-11.6-5.08-.76-10.3-1.63-15.35-1.2-8.68.74-17.37,1.99-25.87,3.87-16.91,3.75-32.82,10.51-48.72,17.24-22.73,9.62-44.76,20.94-68.43,28.27-8.92,2.76-17.92,5.11-27.32,5.99-9.19.86-18.27.93-27.14-1.54-4.69-1.3-8.96-4.03-13.6-5.55-5.32-1.74-9.79-4.83-14.06-8.12-6.72-5.19-12.62-11.22-16.4-20.08,5.49,1.53,10.36,2.84,15.21,4.24,7.44,2.15,14.83,4.28,22.66,4.96,12.15,1.06,23.7-1.58,35.32-4.31,15.82-3.71,29.86-11.6,44.13-18.87,12.18-6.2,23.99-13.13,36.06-19.54,12.09-6.42,24.12-13.02,36.52-18.78,11.8-5.49,24.09-9.94,36.11-14.96,9.73-4.06,19.84-6.66,30.18-8.55,8.43-1.54,16.78-2.62,25.47-1.98,8.03.59,15.79,1.61,23.26,4.6,12.47,5,21.9,13.6,29.06,24.77,6.87,10.72,11.01,22.39,12.62,35.1,1.73,13.65.88,27.1-1.34,40.58-1.46,8.87-2.35,17.85-4.07,26.67-1.98,10.17-4.46,20.26-6.95,30.32-1.56,6.28-3.15,12.59-5.44,18.63-4.5,11.88-9.13,23.75-14.4,35.31-5.02,11.01-10.85,21.66-16.48,32.38-1.36,2.58-3.36,4.82-5.32,7.58Z"/>
      <path class="cls-4" d="m354.38,504.14c-5.25-5.39-6.17-12.01-8.64-17.9-3.68-8.81-7-17.78-11.08-26.39-4.09-8.63-8.75-17.01-13.51-25.3-4.25-7.39-10.02-13.65-16.83-18.72-4-2.98-8.6-4.83-13.88-5.4-9.64-1.03-17.33,2.83-24.43,8.43-12.71,10.01-21.37,23.34-29.19,37.17-14.11,24.95-24.62,51.48-34.02,78.49-10.29,29.54-19.09,59.52-26.45,89.92-3.8,15.69-7.04,31.51-10.71,47.24-4.71,20.21-9.57,40.39-14.41,60.57-.34,1.42-1,2.76-1.64,4.5-3.32-3.53-4.19-7.84-4.59-11.81-1.1-10.88-1.72-21.83-2.08-32.77-.23-7,.22-14.03.6-21.03.53-9.86,1.15-19.72,1.96-29.56.94-11.39,1.95-22.78,3.28-34.12,1.3-11.06,3.18-22.06,4.53-33.12,2.07-16.91,6.41-33.28,11.45-49.48,4.02-12.94,7.78-25.99,12.51-38.68,6.6-17.72,13.8-35.22,21.11-52.66,7.38-17.61,16.37-34.41,26.89-50.36,6.89-10.44,14.84-19.95,25.57-26.62,9.82-6.1,20.52-8.37,32.17-6.7,13.83,1.99,25.19,8.53,35.46,17.54,21.06,18.49,33.24,42.14,40.28,68.82,3.39,12.82,4.42,25.89,3.86,39.07-.37,8.73-2.19,17.24-5.44,25.37-.51,1.27-1.76,2.25-2.78,3.51Z"/>
      <path class="cls-1" d="m682.11,641.11V107.01c.95-.04,1.9-.13,2.85-.13,15.98-.04,31.95-.07,47.93-.11,26.74-.07,53.47-.15,80.21-.24,31.08-.1,62.17-.26,93.25-.29,41.41-.05,82.82-.04,124.24,0,16.41.02,32.82.14,49.22.36,8.09.11,16.21.23,24.26.93,14.47,1.25,28.93,2.83,43,6.62,13.34,3.59,25.86,8.99,37.07,17.33,11.24,8.36,18.96,19.1,23.95,32.1,3.51,9.15,5.38,18.53,6.51,28.23,1.91,16.35,1.85,32.68,1.3,49.09-.54,15.9-.44,31.82-.41,47.73.04,23.45.28,46.9.42,70.35.19,31.6.38,63.19.54,94.79.04,8.58,0,17.16-.11,25.74-.12,10.39-.31,20.79-.54,31.18-.15,7.01-.3,14.02-.67,21.03-.54,10.07-.85,20.18-2.03,30.18-1.73,14.74-7.82,27.72-17.34,39.16-11.13,13.38-25.47,21.74-41.48,27.98-12.12,4.73-24.68,7.41-37.38,9.49-7.79,1.28-15.76,1.64-23.67,2.04-45.57,2.32-91.17,1.18-136.76,1.19-35.75,0-71.5-.41-107.26-.47-15.06-.02-30.12.47-45.18.6-31.15.27-62.3.57-93.45.59-9.35,0-18.69-.88-28.45-1.38Z"/>
    </g>
  </g>
</svg>