<?xml version="1.0" encoding="utf-8"?>
<!-- Generator: Adobe Illustrator 27.5.0, SVG Export Plug-In . SVG Version: 6.00 Build 0)  -->
<svg version="1.1" id="Futura_Dental" xmlns="http://www.w3.org/2000/svg" xmlns:xlink="http://www.w3.org/1999/xlink" x="0px"
	 y="0px" viewBox="0 0 1304.5 737" style="enable-background:new 0 0 1304.5 737;" xml:space="preserve">
<style type="text/css">
	.st0{fill:#114286;}
	.st1{fill:#616161;}
	.st2{fill:#626262;}
</style>
<path id="D" class="st0" d="M1304.5,535c-0.4,3.1-1,6.2-1.3,9.4c-0.3,3.8-0.3,7.7-0.7,11.6c-1,9.1-1.7,18.2-3.3,27.2
	c-1.8,9.6-4,19.3-6.9,28.6c-4.7,14.7-12.1,28.2-21.3,40.5c-5,6.7-10.6,13-16.7,18.7c-20.4,19.2-44.7,31.7-71.6,39.4
	c-17.1,4.9-34.5,8.4-52.2,10.4c-8.9,1-17.7,1.8-26.6,2.5c-8.2,0.6-16.3,1.2-24.5,1.4c-16.5,0.4-33,0.8-49.5,0.9c-15,0-30-0.4-45-0.6
	c-4.3,0-8.7,0.3-13,0.3c-100.1-0.2-200.1-0.5-300.2-0.7c-9,0-17.9,0.5-26.9,0.7c-7,0.1-14,0.7-20.9-0.2c-8-1-16.2-2.3-22.8-7.9
	c-2.9-2.4-5-5.6-5.5-9.3c-0.8-5.5-1.2-11.1-1.3-16.6c-0.4-9.9-0.5-19.9-0.7-29.8c-0.2-10.4-0.5-20.8-0.6-31.1c-0.3-27-0.7-54-0.8-81
	c-0.2-74-0.3-147.9-0.4-221.9c0-16.9,0.1-33.9,0.2-50.8c0.2-42.1,0.3-84.3,0.5-126.4c0.1-19.8,0.2-39.5,0.2-59.3
	c0-12.3-0.6-24.5-0.2-36.8c0.3-9.8,3.2-19,11.3-25.4c2.4-2,5.7-3.3,8.8-3.9c5.2-0.9,10.5-1.3,15.8-1.4c25.4-0.6,50.8-1.3,76.2-1.5
	c33.8-0.3,67.6-0.3,101.4-0.2c30.3,0,60.6,0.3,91,0.4c37.7,0.2,75.4,0.3,113.1,0.4c17.3,0.1,34.5,0,51.8,0.1c7.3,0,14.7,0.3,22,0.6
	c8.2,0.4,16.3,0.7,24.5,1.4c9.5,0.8,19,2,28.5,3.2c8.7,1.1,17.6,2.1,26.1,4c11.9,2.6,23.9,5.4,35.4,9.2
	c24.7,8.1,46.8,20.7,64.7,40.1c14,15.2,23.6,33,29.9,52.6c3.8,11.9,6.3,24,7.9,36.4c2,15.1,2.7,30.3,2.7,45.5c0,61,0,122.1,0,183.1
	c0,5.4-0.2,10.9-0.1,16.3c0.1,7.3,0.4,14.7,0.7,22c0,3.8-0.1,7.6,0,11.4c0.1,3.2,0.4,6.4,0.6,9.5
	C1304.5,483.8,1304.5,509.4,1304.5,535L1304.5,535z M682.1,641.1c9.8,0.5,19.1,1.4,28.5,1.4c31.2,0,62.3-0.3,93.5-0.6
	c15.1-0.1,30.1-0.6,45.2-0.6c35.8,0.1,71.5,0.5,107.3,0.5c45.6,0,91.2,1.1,136.8-1.2c7.9-0.4,15.9-0.8,23.7-2
	c12.7-2.1,25.3-4.8,37.4-9.5c16-6.2,30.3-14.6,41.5-28c9.5-11.4,15.6-24.4,17.3-39.2c1.2-10,1.5-20.1,2-30.2c0.4-7,0.5-14,0.7-21
	c0.2-10.4,0.4-20.8,0.5-31.2c0.1-8.6,0.2-17.2,0.1-25.7c-0.2-31.6-0.3-63.2-0.5-94.8c-0.1-23.5-0.4-46.9-0.4-70.4
	c0-15.9-0.1-31.8,0.4-47.7c0.6-16.4,0.6-32.7-1.3-49.1c-1.1-9.7-3-19.1-6.5-28.2c-5-13-12.7-23.7-23.9-32.1
	c-11.2-8.3-23.7-13.7-37.1-17.3c-14.1-3.8-28.5-5.4-43-6.6c-8.1-0.7-16.2-0.8-24.3-0.9c-16.4-0.2-32.8-0.3-49.2-0.4
	c-41.4-0.1-82.8-0.1-124.2,0c-31.1,0-62.2,0.2-93.2,0.3c-26.7,0.1-53.5,0.2-80.2,0.2c-16,0-32,0.1-47.9,0.1c-1,0-1.9,0.1-2.8,0.1
	L682.1,641.1L682.1,641.1z"/>
<path class="st1" d="M0,92.5c0.7-3.7,1.4-7.4,2.1-11.1c3.2-15.7,9.8-29.7,20.1-42.1C31.7,28,43.4,19.8,56.6,13.6
	c10.1-4.7,20.8-7.7,31.8-9.8c12.3-2.3,24.7-3.5,37.2-3.1c18.7,0.6,37.1,3.5,55.2,8.4c24.7,6.8,47.6,17.7,70.1,29.6
	c9.4,5,18,11.3,27,17c1.4,0.9,2.6,2.2,4,3.3c-0.2,0.4-0.4,0.7-0.5,1.1c-4.4-0.6-8.7-1.1-13-1.8c-6.6-1-13.2-2-19.9-3
	c-7.8-1.1-15.6-2.3-23.4-3.2c-5.3-0.6-10.7-1.1-16-1.3c-12.4-0.5-24.8-1.5-37.2-1.2c-17.3,0.5-34.6,2.3-51.2,8.2
	c-11.3,4-21.6,9.7-30,18.3c-9.6,9.8-15.1,21.6-17.5,35.1c-3.6,19.3,1.2,37.2,8.8,54.7c8.3,19.3,20.1,36.5,31.6,53.9
	c11.4,17.4,23.1,34.7,31.8,53.7c4.9,10.9,8.8,22.1,10.1,34c0.9,8.4,2.2,16.9,1.8,25.3c-0.6,11.4-2.1,22.8-4.1,34
	c-5.6,31-17.6,60.2-28,89.8c-6.7,19-13.2,38.1-17.4,57.8c-2.4,11.5-4.3,23.1-6.4,34.7c-2.2,12.4-3.3,24.9-3.2,37.5
	c0,8.9-0.5,17.9,0.1,26.8c1.8,24,6.2,47.5,16.5,69.3c6.1,13,13.4,25.3,20.1,38c2.6,4.9,5,10,7.9,15.8c-7.5-1.9-13.6-4.2-19.7-7
	c-11.1-5.1-20-12.7-28.1-21.5c-9-9.7-15.8-20.8-21-32.9c-3.5-8.1-6.4-16.4-7.8-25.1c-1.2-7.3-2.8-14.7-3-22.1
	c-0.6-16.5-0.9-33.1-0.7-49.7c0.2-10.2,1.6-20.3,2.5-30.4c0.6-7.1,1.2-14.2,2.1-21.3c0.9-7.4,2.1-14.7,3.1-22c0.7-5.5,1.3-11,2-16.5
	c0.8-5.8,1.7-11.5,2.5-17.3c0.5-3.9,0.9-7.8,1.4-11.7c0.8-6.3,1.7-12.6,2.4-18.9c0.6-4.8,1-9.5,1.5-14.3c0.6-5.6,1.2-11.2,1.7-16.9
	c0.3-3.2,0.6-6.4,0.8-9.6c0.3-5.6,0.4-11.2,0.7-16.8c0.2-4.5,0.6-9,0.6-13.5c-0.1-7.9-0.1-15.8-0.7-23.6
	c-1.1-13.4-2.4-26.7-6.1-39.7c-1.8-6.4-3.9-12.7-6.9-18.6c-5.1-10.1-10.4-20.1-15.6-30.1c-2.4-4.7-4.7-9.4-7.2-14.1
	c-5-9.4-10.2-18.6-14.9-28.2c-4.3-8.9-7.8-18.2-12.1-27.2c-7.7-16.1-13-32.9-17.1-50.1c-1.2-4.9-1.4-10.1-2.2-15.1
	c-0.1-0.8-0.5-1.5-0.7-2.3C0,110.8,0,101.7,0,92.5z"/>
<path class="st1" d="M464,279.9c-0.4-1-0.8-1.5-0.9-2.1c-0.3-4.8-0.5-9.7-0.7-14.5c-0.3-8.3-0.4-16.6-0.7-25
	c-0.2-5.5-0.5-11.1-0.6-16.6c0-1.4,0.8-2.8,1.1-4.2c0.5-2,0.9-4.1,1.5-6.1c1.8-5.7,4-11.3,5.4-17.1c1.6-6.8,2.5-13.8,3.8-20.6
	c1.9-9.8,2.1-19.7,1.8-29.6c-0.2-9.2-2-18.1-5.4-26.7c-3.5-9-8.7-16.6-15.9-22.9c-7.3-6.3-15.8-10.2-25.3-11.6
	c-5.1-0.8-10.3-1.6-15.4-1.2c-8.7,0.7-17.4,2-25.9,3.9c-16.9,3.8-32.8,10.5-48.7,17.2c-22.7,9.6-44.8,20.9-68.4,28.3
	c-8.9,2.8-17.9,5.1-27.3,6c-9.2,0.9-18.3,0.9-27.1-1.5c-4.7-1.3-9-4-13.6-5.6c-5.3-1.7-9.8-4.8-14.1-8.1
	c-6.7-5.2-12.6-11.2-16.4-20.1c5.5,1.5,10.4,2.8,15.2,4.2c7.4,2.2,14.8,4.3,22.7,5c12.1,1.1,23.7-1.6,35.3-4.3
	c15.8-3.7,29.9-11.6,44.1-18.9c12.2-6.2,24-13.1,36.1-19.5c12.1-6.4,24.1-13,36.5-18.8c11.8-5.5,24.1-9.9,36.1-15
	c9.7-4.1,19.8-6.7,30.2-8.5c8.4-1.5,16.8-2.6,25.5-2c8,0.6,15.8,1.6,23.3,4.6c12.5,5,21.9,13.6,29.1,24.8
	c6.9,10.7,11,22.4,12.6,35.1c1.7,13.7,0.9,27.1-1.3,40.6c-1.5,8.9-2.3,17.9-4.1,26.7c-2,10.2-4.5,20.3-7,30.3
	c-1.6,6.3-3.1,12.6-5.4,18.6c-4.5,11.9-9.1,23.8-14.4,35.3c-5,11-10.9,21.7-16.5,32.4C468,274.8,466,277.1,464,279.9L464,279.9z"/>
<path class="st2" d="M354.4,504.1c-5.2-5.4-6.2-12-8.6-17.9c-3.7-8.8-7-17.8-11.1-26.4c-4.1-8.6-8.8-17-13.5-25.3
	c-4.2-7.4-10-13.6-16.8-18.7c-4-3-8.6-4.8-13.9-5.4c-9.6-1-17.3,2.8-24.4,8.4c-12.7,10-21.4,23.3-29.2,37.2
	c-14.1,25-24.6,51.5-34,78.5c-10.3,29.5-19.1,59.5-26.4,89.9c-3.8,15.7-7,31.5-10.7,47.2c-4.7,20.2-9.6,40.4-14.4,60.6
	c-0.3,1.4-1,2.8-1.6,4.5c-3.3-3.5-4.2-7.8-4.6-11.8c-1.1-10.9-1.7-21.8-2.1-32.8c-0.2-7,0.2-14,0.6-21c0.5-9.9,1.1-19.7,2-29.6
	c0.9-11.4,1.9-22.8,3.3-34.1c1.3-11.1,3.2-22.1,4.5-33.1c2.1-16.9,6.4-33.3,11.4-49.5c4-12.9,7.8-26,12.5-38.7
	c6.6-17.7,13.8-35.2,21.1-52.7c7.4-17.6,16.4-34.4,26.9-50.4c6.9-10.4,14.8-20,25.6-26.6c9.8-6.1,20.5-8.4,32.2-6.7
	c13.8,2,25.2,8.5,35.5,17.5c21.1,18.5,33.2,42.1,40.3,68.8c3.4,12.8,4.4,25.9,3.9,39.1c-0.4,8.7-2.2,17.2-5.4,25.4
	C356.6,501.9,355.4,502.9,354.4,504.1L354.4,504.1z"/>
</svg>
